<?xml version="1.0" encoding="UTF-8" standalone="no"?>
<svg
   xmlns:dc="http://purl.org/dc/elements/1.1/"
   xmlns:cc="http://creativecommons.org/ns#"
   xmlns:rdf="http://www.w3.org/1999/02/22-rdf-syntax-ns#"
   xmlns:svg="http://www.w3.org/2000/svg"
   xmlns="http://www.w3.org/2000/svg"
   xmlns:xlink="http://www.w3.org/1999/xlink"
   id="svg8"
   version="1.1"
   viewBox="0 0 71.4375 48.003471"
   height="181.43045"
   width="270">
  <defs
     id="defs2">
    <linearGradient
       id="linearGradient852">
      <stop
         id="stop848"
         offset="0"
         style="stop-color:#e4301a;stop-opacity:1" />
      <stop
         id="stop850"
         offset="1"
         style="stop-color:#614aff;stop-opacity:0;" />
    </linearGradient>
    <filter
       id="filter846"
       style="color-interpolation-filters:sRGB">
      <feFlood
         id="feFlood836"
         result="flood"
         flood-color="rgb(0,0,0)"
         flood-opacity="0.643137" />
      <feComposite
         id="feComposite838"
         result="composite1"
         operator="in"
         in2="SourceGraphic"
         in="flood" />
      <feGaussianBlur
         id="feGaussianBlur840"
         result="blur"
         stdDeviation="2"
         in="composite1" />
      <feOffset
         id="feOffset842"
         result="offset"
         dy="2"
         dx="2" />
      <feComposite
         id="feComposite844"
         result="composite2"
         operator="over"
         in2="offset"
         in="SourceGraphic" />
    </filter>
    <linearGradient
       gradientTransform="translate(22.5,-956.20823)"
       gradientUnits="userSpaceOnUse"
       y2="932.51965"
       x2="280"
       y1="1072.5197"
       x1="110"
       id="linearGradient854"
       xlink:href="#linearGradient852" />
  </defs>
  <g
     transform="translate(5.9531249,-252.99676)"
     id="layer1">
    <path
       id="rect815"
       transform="matrix(0.26458333,0,0,0.26458333,-5.9531249,252.99676)"
       d="M 234.10156 15.121094 C 232.18753 15.112094 230 15.128906 227.5 15.128906 L 79.193359 15.128906 C 44.19336 15.128716 22.5 36.822306 22.5 71.822266 L 22.5 147.41211 C 22.5 166.30971 22.500799 166.31055 41.398438 166.31055 L 192.5 166.31055 C 222.5 166.31055 247.5 141.31055 247.5 111.31055 L 247.5 34.027344 C 247.5 16.527334 247.49982 15.183524 234.10156 15.121094 z M 47.5 116.31055 L 52.5 116.31055 L 52.5 126.31055 L 62.5 126.31055 L 62.5 116.31055 L 67.5 116.31055 L 67.5 126.31055 L 77.5 126.31055 L 77.5 131.31055 L 67.5 131.31055 L 67.5 141.31055 L 77.5 141.31055 L 77.5 146.31055 L 67.5 146.31055 L 67.5 156.31055 L 62.5 156.31055 L 62.5 146.31055 L 52.5 146.31055 L 52.5 156.31055 L 47.5 156.31055 L 47.5 146.31055 L 37.5 146.31055 L 37.5 141.31055 L 47.5 141.31055 L 47.5 131.31055 L 37.5 131.31055 L 37.5 126.31055 L 47.5 126.31055 L 47.5 116.31055 z M 52.5 131.31055 L 52.5 141.31055 L 62.5 141.31055 L 62.5 131.31055 L 52.5 131.31055 z "
       style="opacity:1;fill:url(#linearGradient854);fill-opacity:1;fill-rule:nonzero;stroke:none;stroke-width:2.64566922;stroke-linecap:round;stroke-linejoin:miter;stroke-miterlimit:4;stroke-dasharray:none;stroke-opacity:1;paint-order:normal;filter:url(#filter846)" />
  </g>
</svg>
