<svg version="1" xmlns="http://www.w3.org/2000/svg" width="682.667" height="682.667" viewBox="0 0 512.000000 512.000000"><path d="M126 114.6c-11.3 1.9-26 7.1-35.7 12.5-5.6 3.1-10.8 7.4-18.3 14.9-12 12-17.4 20.5-22.6 35.8-6.5 18.8-6.5 19.7-6.2 120.7.3 102.6-.4 93.5 8.3 99.5 2.9 2 6.6 3.5 10.3 4 7.5 1.3 296.9 1.3 312.2 0 14.1-1.1 24.4-3.7 35.5-8.9 26.2-12.2 45.5-34 54.4-61.2 5.6-17 5.6-17 5.2-112.4-.3-81.5-.4-88.3-2.1-92.1-1.2-2.7-2.8-4.6-5.1-5.6-4-1.9-22.8-4.3-45.9-5.8-9.1-.6-19.8-1.5-23.8-2-4.3-.6-58.1-1-132.5-.9-103.2.1-126.7.4-133.7 1.5zM99.2 316.2c.3 6.9.4 7.3 2.8 7.6 1.3.2 3.3 1 4.4 1.8 2.5 1.7 10.6 1.8 13 .1 1.1-.8 2-3.5 2.6-7.7.8-6 2.6-9 5.2-9 .4 0 .8 3.4.8 7.5v7.5h2.8c1.5 0 3.6.7 4.6 1.5 1.1.8 3.4 1.5 5.2 1.5 4.8 0 6.4.9 6.4 3.6 0 2.4-.1 2.4-9.5 2.4H128v9.5c0 9.2.1 9.5 2.3 9.5 1.2 0 3 .7 4.1 1.5 1 .7 4.2 1.7 7.2 2.1 4.8.6 5.4.9 5.4 3 0 2.4-.2 2.4-9.5 2.4H128v19.1l-2.7-.3c-2.6-.3-2.8-.7-3.3-5.4-.3-2.8-1-5.8-1.7-6.5-.6-.8-1.3-2.5-1.5-3.9-.3-2.4-.5-2.5-9.4-2.8l-9.1-.3-.7 3.2c-.3 1.7-.6 6-.6 9.5 0 6.2-.1 6.4-2.5 6.4-2.2 0-2.5-.4-2.5-3.8 0-2.1-.9-5.5-2-7.7s-2-4.7-2-5.7c0-1.6-.9-1.8-7-1.8-5.5 0-7-.3-7-1.5 0-1.9 2.5-3.1 8.4-4 2.7-.3 5.5-.9 6.2-1.2 3.4-1.3 4-12.7.8-15.4-.8-.6-1.4-2.2-1.4-3.5 0-2.3-.3-2.4-7-2.4-5.4 0-7-.3-7-1.4 0-2.4 4.2-4.6 8.6-4.6 6 0 8.3-2.3 9.1-9 .5-5.1 2.5-9 4.4-9 .5 0 .9 3.3 1.1 7.2z"/><path d="M99.6 336.1c-.3 1.7-.6 6-.6 9.5 0 6.4 0 6.4 2.9 6.4 1.6 0 3.4.7 4.1 1.5.8 1 3.1 1.5 7.1 1.5 4.8 0 6-.4 7.3-2.2 2-2.8 2.1-9.8.1-12.4-.8-1-1.5-3.1-1.5-4.7V333H100.3l-.7 3.1z"/></svg>