<svg version="1" xmlns="http://www.w3.org/2000/svg" width="360" height="360" viewBox="0 0 270.000000 270.000000"><path d="M64.5 60.6c-18.1 3.6-32.7 16-38.5 32.9-3.4 9.9-4.2 23.7-3.8 69.1l.3 42.6 3.2 2.8c2 1.8 4.8 3.1 7.5 3.5 2.4.3 41.4.5 86.8.3 71.6-.4 83.2-.6 87.6-2 14.8-4.5 27.4-15 33.7-27.8 6.6-13.3 7-17.5 6.2-68.5-.3-24.8-.8-45.8-1.1-46.8-.8-2.7-3.5-3.6-13.6-4.7-21.1-2.3-46.3-3-102.3-2.9-45.9.1-60.6.4-66 1.5zM52 166.3c0 3 .4 3.5 3.9 4.7 5.5 1.8 7.7.8 8.5-4 .8-4.8 2.6-5.3 2.6-.7 0 2.8.5 3.5 3.3 4.5 1.8.7 4.1 1.2 5 1.2.9 0 1.7.7 1.7 1.5 0 1.1-1.2 1.5-5 1.5h-5v4.8c0 4.5.2 4.9 3.3 6 1.8.7 4.1 1.2 5 1.2.9 0 1.7.7 1.7 1.5 0 1.1-1.2 1.5-5 1.5h-5v5c0 7.6-1.8 6.7-3.5-1.8-.6-3.1-.8-3.2-6.1-3.2H52v5c0 7.6-1.8 6.7-3.5-1.8-.6-3-.9-3.2-4.7-3.2-4.1 0-5.1-2.2-1.2-2.8 6-.9 6.4-1.2 6.4-4.5 0-6.5-.9-7.7-5.2-7.7-4.1 0-5.1-2.2-1.2-2.8 5.8-.9 6.1-1.1 6.8-5.2.8-4.8 2.6-5.3 2.6-.7z"/><path d="M52 179.8c0 4.8.1 4.9 3.9 6.2 5.4 1.8 8.1.7 8.1-3.3 0-6.9-.7-7.7-6.6-7.7H52v4.8z"/></svg>